/* XPM */
static char *book_xpm[] = {
/* width height num_colors chars_per_pixel */
"    43    43       27            1",
/* colors */
". c #dfdfdf",
"# c #a0a0a0",
"a c #efefef",
"b c #000000",
"c c #bdbdbd",
"d c #b5b5b5",
"e c #3a3a3a",
"f c #515151",
"g c #b8b8b8",
"h c #bdbdbd",
"i c #1f1f1f",
"j c #1a1a1a",
"k c #393939",
"l c #414141",
"m c #323232",
"n c #191919",
"o c #222222",
"p c #333333",
"q c #525252",
"r c #5a5a5a",
"s c #252525",
"t c #8a8a8a",
"u c #828282",
"v c #8b8b8b",
"w c #848484",
"x c #919191",
"y c #545454",
/* pixels */
"...........................................",
"..................###......................",
".................#aaa#.....................",
"...............##aaaaa#....................",
".............##aaaaaaaa#...................",
"...........##aaaaabbaaaa#..................",
".........##aaaaabb##baaaa#.................",
"........#aaaaabb#####baaaa.................",
"......##aaaabb########baaa#................",
"..##aaaaab######c##e###fbaaa#..............",
"##aaaaabb######cgccgchfffbaaa#.............",
"#aaaaab#######ihcj#c###cffaaaa#............",
"#aaaaaab######hc#eel###hc#baaaa#...........",
"ffaaaaaab#####dhnjjnjmhm##mbaaaa#..........",
"fffaaaaaa#####h#o#nompmpmppmbaaaa#.........",
"ffffaaaaab###hchijfijm##kmmkmbaaaa#........",
"fffffaaaaab##chconnonpmkmpkmpmbaaaa........",
"ffffffaaaaab#hdhchhnaikmkmmkmkmbaaa#.......",
"ffffffffaaaaabcrchjij#jijmmkikbkmbaaa#.....",
"bffffffffaaaaabqhstfnfuvuwonjnrqbbaaaa#....",
"fbfffffffaaaaaabb#jfjfvuvuqrqrbbbaaaaaa#...",
"ffbfffffffaaaaaabbfonouwqwyqbbbaaaaaaaaa#..",
".ffbfffffffaaaaaabfifivuvqbbbaaaaaaaaaaaa#.",
"..ffbfffffffaaaaaaffbwuvbbbaaaaaaaaaaaaaaa#",
"...ffbfffffffaaaaabfvuvbbbaaaabbaaaaaaaaaaa",
"....ffbfffffffaaaaabubbbaaaabbaaaabaaaaaaaa",
"......ffbfffffffaaaaaaaaabaaaabbaaaaaaaafff",
".......ffffffffffaaaaaaabaaabbaaaaaaaafffff",
"........fbffffffffaaaaaaaabbaaaaaaaaffffff#",
".........fbfffffffaaaaaaaaaaaaaaaaafffff##f",
".........ffbfffffffaaaaaaaaaaaaaafffff##ff#",
"..........ffbfffffffaaaaaaaaaaafffff##ff##f",
"...........ffbfffffffaaaaaaaaffffff#ff##ffb",
"............ffbfffffffaaaaaffffff##f##ffbbf",
".............ffbfffffffaaafffff##ff#ffbbfff",
"...............ffbfffffffff##ff##ffbfff....",
"................ffffffffff#ff##ffbbff......",
".................fbffffff#f##ffbbff........",
"..................fbffffff#ffbbfff.........",
"..................ffbffff#fbbfff...........",
"...................ffbffffbfff.............",
"....................ffbbbbff...............",
".....................fffff................."
};
